{
  "accessors": [
    {
      "bufferView": 2,
      "componentType": 5126,
      "count": 1351,
      "max": [
        8.076141357421875,
        10.953386306762695,
        3.1377894878387451
      ],
      "min": [
        -8.0761423110961914,
        -10.916988372802734,
        -3.1377894878387451
      ],
      "type": "VEC3"
    },
    {
      "bufferView": 2,
      "byteOffset": 16212,
      "componentType": 5126,
      "count": 1351,
      "max": [
        1,
        1,
        1
      ],
      "min": [
        -1,
        -1,
        -1
      ],
      "type": "VEC3"
    },
    {
      "bufferView": 3,
      "componentType": 5126,
      "count": 1351,
      "max": [
        1,
        0.89441853761672974,
        1,
        1
      ],
      "min": [
        -1,
        -1,
        -1,
        1
      ],
      "type": "VEC4"
    },
    {
      "bufferView": 1,
      "componentType": 5126,
      "count": 1351,
      "max": [
        0.99376028776168823,
        0.99194467067718506
      ],
      "min": [
        0.013277970254421234,
        0.015917351469397545
      ],
      "type": "VEC2"
    },
    {
      "bufferView": 0,
      "componentType": 5125,
      "count": 3420,
      "max": [
        1350
      ],
      "min": [
        0
      ],
      "type": "SCALAR"
    },
    {
      "bufferView": 2,
      "byteOffset": 32424,
      "componentType": 5126,
      "count": 1043,
      "max": [
        8.7730197906494141,
        10.945988655090332,
        2.2030136585235596
      ],
      "min": [
        -8.6183271408081055,
        -9.4624919891357422,
        -2.2030136585235596
      ],
      "type": "VEC3"
    },
    {
      "bufferView": 2,
      "byteOffset": 44940,
      "componentType": 5126,
      "count": 1043,
      "max": [
        1,
        1,
        1
      ],
      "min": [
        -1,
        -1,
        -1
      ],
      "type": "VEC3"
    },
    {
      "bufferView": 3,
      "byteOffset": 21616,
      "componentType": 5126,
      "count": 1043,
      "max": [
        1,
        1,
        1,
        1
      ],
      "min": [
        -1,
        -1,
        -1,
        -1
      ],
      "type": "VEC4"
    },
    {
      "bufferView": 1,
      "byteOffset": 10808,
      "componentType": 5126,
      "count": 1043,
      "max": [
        0.66793537139892578,
        0.99982243776321411
      ],
      "min": [
        0.00017760388436727226,
        0.00017760388436727226
      ],
      "type": "VEC2"
    },
    {
      "bufferView": 1,
      "byteOffset": 19152,
      "componentType": 5126,
      "count": 1043,
      "max": [
        0.66793537139892578,
        0.99982243776321411
      ],
      "min": [
        0.00017760388436727226,
        0.00017760388436727226
      ],
      "type": "VEC2"
    },
    {
      "bufferView": 1,
      "byteOffset": 27496,
      "componentType": 5126,
      "count": 1043,
      "max": [
        0.66793537139892578,
        0.99982243776321411
      ],
      "min": [
        0.00017760388436727226,
        0.00017760388436727226
      ],
      "type": "VEC2"
    },
    {
      "bufferView": 0,
      "byteOffset": 13680,
      "componentType": 5125,
      "count": 3612,
      "max": [
        1042
      ],
      "min": [
        0
      ],
      "type": "SCALAR"
    }
  ],
  "asset": {
    "extras": {
      "author": "UntamedMk828 (https://sketchfab.com/UntamedMk828)",
      "license": "CC-BY-4.0 (http://creativecommons.org/licenses/by/4.0/)",
      "source": "https://sketchfab.com/3d-models/external-hard-drive-bbae9a8542e24ef5b1f0520c4e44478c",
      "title": "External Hard Drive"
    },
    "generator": "Sketchfab-6.93.2",
    "version": "2.0"
  },
  "bufferViews": [
    {
      "buffer": 0,
      "byteLength": 28128,
      "byteOffset": 0,
      "name": "floatBufferViews",
      "target": 34963
    },
    {
      "buffer": 0,
      "byteLength": 35840,
      "byteOffset": 28128,
      "byteStride": 8,
      "name": "floatBufferViews",
      "target": 34962
    },
    {
      "buffer": 0,
      "byteLength": 57456,
      "byteOffset": 63968,
      "byteStride": 12,
      "name": "floatBufferViews",
      "target": 34962
    },
    {
      "buffer": 0,
      "byteLength": 38304,
      "byteOffset": 121424,
      "byteStride": 16,
      "name": "floatBufferViews",
      "target": 34962
    }
  ],
  "buffers": [
    {
      "byteLength": 159728,
      "uri": "scene.bin"
    }
  ],
  "images": [
    {
      "uri": "textures/Disco_baseColor.png"
    },
    {
      "uri": "textures/Disco_metallicRoughness.png"
    },
    {
      "uri": "textures/Disco_normal.png"
    },
    {
      "uri": "textures/Cable_baseColor.png"
    },
    {
      "uri": "textures/Cable_metallicRoughness.png"
    },
    {
      "uri": "textures/Cable_normal.png"
    }
  ],
  "materials": [
    {
      "doubleSided": true,
      "name": "Disco",
      "normalTexture": {
        "index": 2,
        "scale": 1,
        "texCoord": 0
      },
      "occlusionTexture": {
        "index": 1,
        "strength": 1,
        "texCoord": 0
      },
      "pbrMetallicRoughness": {
        "baseColorFactor": [
          1,
          1,
          1,
          1
        ],
        "baseColorTexture": {
          "index": 0,
          "texCoord": 0
        },
        "metallicFactor": 1,
        "metallicRoughnessTexture": {
          "index": 1,
          "texCoord": 0
        },
        "roughnessFactor": 1
      }
    },
    {
      "doubleSided": true,
      "emissiveFactor": [
        0,
        0,
        0
      ],
      "name": "Cable",
      "normalTexture": {
        "index": 5,
        "scale": 1,
        "texCoord": 0
      },
      "pbrMetallicRoughness": {
        "baseColorFactor": [
          1,
          1,
          1,
          1
        ],
        "baseColorTexture": {
          "index": 3,
          "texCoord": 0
        },
        "metallicFactor": 1,
        "metallicRoughnessTexture": {
          "index": 4,
          "texCoord": 0
        },
        "roughnessFactor": 1
      }
    }
  ],
  "meshes": [
    {
      "name": "Disco FBX_Disco_0",
      "primitives": [
        {
          "attributes": {
            "NORMAL": 1,
            "POSITION": 0,
            "TANGENT": 2,
            "TEXCOORD_0": 3
          },
          "indices": 4,
          "material": 0,
          "mode": 4
        }
      ]
    },
    {
      "name": "Disco FBX_Cable_0",
      "primitives": [
        {
          "attributes": {
            "NORMAL": 6,
            "POSITION": 5,
            "TANGENT": 7,
            "TEXCOORD_0": 8,
            "TEXCOORD_1": 9,
            "TEXCOORD_2": 10
          },
          "indices": 11,
          "material": 1,
          "mode": 4
        }
      ]
    }
  ],
  "nodes": [
    {
      "children": [
        1
      ],
      "name": "RootNode (gltf orientation matrix)",
      "rotation": [
        -0.70710678118654746,
        -0,
        -0,
        0.70710678118654757
      ]
    },
    {
      "children": [
        2
      ],
      "matrix": [
        1,
        0,
        0,
        0,
        0,
        -6.0127163123979699e-06,
        1,
        0,
        0,
        -1,
        -6.0127163123979699e-06,
        0,
        0,
        0.017171461135149002,
        -0.0171774011105299,
        1
      ],
      "name": "RootNode (model correction matrix)"
    },
    {
      "children": [
        3
      ],
      "matrix": [
        1,
        0,
        0,
        0,
        0,
        0,
        1,
        0,
        0,
        -1,
        0,
        0,
        0,
        0,
        0,
        1
      ],
      "name": "357a2766e73e4088a25dfdff96de6695.fbx"
    },
    {
      "children": [
        4
      ],
      "name": "RootNode"
    },
    {
      "children": [
        5,
        6
      ],
      "matrix": [
        0.94482862949371338,
        0,
        0,
        0,
        0,
        -1.5393212222596875e-07,
        -0.94482862949370094,
        0,
        0,
        0.46149009466170654,
        -7.5186279754886816e-08,
        0,
        0,
        0,
        0,
        1
      ],
      "name": "Disco FBX"
    },
    {
      "mesh": 0,
      "name": "Disco FBX_Disco_0"
    },
    {
      "mesh": 1,
      "name": "Disco FBX_Cable_0"
    }
  ],
  "samplers": [
    {
      "magFilter": 9729,
      "minFilter": 9987,
      "wrapS": 10497,
      "wrapT": 10497
    }
  ],
  "scene": 0,
  "scenes": [
    {
      "name": "OSG_Scene",
      "nodes": [
        0
      ]
    }
  ],
  "textures": [
    {
      "sampler": 0,
      "source": 0
    },
    {
      "sampler": 0,
      "source": 1
    },
    {
      "sampler": 0,
      "source": 2
    },
    {
      "sampler": 0,
      "source": 3
    },
    {
      "sampler": 0,
      "source": 4
    },
    {
      "sampler": 0,
      "source": 5
    }
  ]
}

